<?xml version="1.0" encoding="UTF-8" standalone="no"?>
<!-- Created with Inkscape (http://www.inkscape.org/) -->

<svg
   width="120"
   height="120"
   viewBox="0 0 31.75 31.75"
   version="1.1"
   id="svg5"
   xmlns="http://www.w3.org/2000/svg"
   xmlns:svg="http://www.w3.org/2000/svg">
  <defs
     id="defs2">
    <symbol
       id="ic_near_me_24px">
      <path
         d="M21 3L3 10.53v.98l6.84 2.65L12.48 21h.98L21 3z"
         id="path5207" />
    </symbol>
    <symbol
       id="ic_my_location_24px">
      <path
         d="M12 8c-2.21 0-4 1.79-4 4s1.79 4 4 4 4-1.79 4-4-1.79-4-4-4zm8.94 3A8.994 8.994 0 0 0 13 3.06V1h-2v2.06A8.994 8.994 0 0 0 3.06 11H1v2h2.06A8.994 8.994 0 0 0 11 20.94V23h2v-2.06A8.994 8.994 0 0 0 20.94 13H23v-2h-2.06zM12 19c-3.87 0-7-3.13-7-7s3.13-7 7-7 7 3.13 7 7-3.13 7-7 7z"
         id="path5201" />
    </symbol>
  </defs>
  <g
     id="layer1">
    <rect
       style="font-variation-settings:normal;opacity:1;fill:#aa0000;fill-opacity:1;fill-rule:evenodd;stroke:none;stroke-width:0.264583;stroke-linecap:round;stroke-linejoin:round;stroke-miterlimit:4;stroke-dasharray:none;stroke-dashoffset:0;stroke-opacity:1;stop-color:#000000;stop-opacity:1"
       id="rect5932"
       width="31.75"
       height="31.75"
       x="0"
       y="0" />
    <g
       id="g19580">
      <g
         id="use18554"
         style="fill:#000000"
         transform="matrix(-1.7638889,0,0,1.7638889,37.041913,-5.2916327)">
        <path
           id="path18556"
           style="color:#000000;stroke-width:6.66667;-inkscape-stroke:none"
           d="M -25.607422,66.533203 24.660156,186.5332 h 6.533203 l 11.246094,-29.13867 -0.002,0.002 c -0.998265,-0.0347 -1.779514,-0.0527 -2.34375,-0.0527 -0.477431,0 -1.232638,0.018 -2.265625,0.0527 l -0.05273,-0.0527 0.05273,-0.50781 c 0.01736,-0.13889 0.103516,-0.20703 0.259766,-0.20703 l 0.703125,-0.0527 c 0.642361,-0.0347 1.085069,-0.54253 1.328125,-1.52344 l 3.763671,-13.02148 c 0.06076,-0.22569 0.0918,-0.398 0.0918,-0.51953 0,-0.19097 -0.0701,-0.33116 -0.208984,-0.41797 -0.130208,-0.0955 -0.351562,-0.1556 -0.664063,-0.18164 l -0.716796,-0.0527 c -0.08681,0 -0.141927,-0.0161 -0.167969,-0.0508 -0.02604,-0.0347 -0.03906,-0.0788 -0.03906,-0.13086 l 0.05078,-0.5332 0.05273,-0.0527 3.841797,0.0254 0.992187,5.16601 1.677735,-4.34961 45.599609,-17.66601 v -6.53516 z m 72.722656,78.749997 -1.505859,3.90039 1.501953,8.03125 c 0.05208,0.19098 0.166233,0.28516 0.339844,0.28516 0.147569,0.009 0.280816,-0.0855 0.402344,-0.28516 l 8.503906,-14.11523 h 0.05078 l -1.601562,11.92773 c -0.05208,0.39063 -0.177301,0.74219 -0.376953,1.05469 -0.190973,0.3125 -0.446398,0.47678 -0.767579,0.49414 l -0.691406,0.0527 c -0.15625,0.0174 -0.242404,0.0855 -0.259765,0.20703 l -0.05273,0.50781 0.05273,0.0527 c 1.631945,-0.0347 2.548393,-0.0527 2.748046,-0.0527 0.321181,0 1.27973,0.018 2.876954,0.0527 l 0.05273,-0.0527 0.05078,-0.50781 c 0,-0.0694 -0.01606,-0.12153 -0.05078,-0.15625 -0.03472,-0.0347 -0.09679,-0.0508 -0.183594,-0.0508 l -0.703125,-0.0527 c -0.529514,-0.0434 -0.792969,-0.36393 -0.792969,-0.96289 0.0087,-0.14757 0.02474,-0.34288 0.05078,-0.58594 l 1.628906,-12.99609 c 0.0868,-0.69444 0.485459,-1.06706 1.197266,-1.11914 l 0.689453,-0.0527 c 0.199653,-0.0174 0.30881,-0.0775 0.326171,-0.18165 l 0.05273,-0.5332 -0.05273,-0.0527 h -3.359374 l -8.085938,13.56836 c -0.138889,0.25173 -0.235026,0.37695 -0.287109,0.37695 -0.07813,0 -0.125217,-0.11719 -0.142579,-0.35156 z m -1.505859,3.90039 -1.087891,-5.81054 h -0.05273 l -3.359375,11.67968 c -0.06944,0.26042 -0.108507,0.4898 -0.117187,0.68946 0,0.51215 0.234374,0.79058 0.703124,0.83398 l 0.638672,0.0527 c 0.138889,0 0.207032,0.0681 0.207032,0.20703 l -0.01758,0.33984 z m -3.093747,8.16014 c -45.4153677,-60.540351 -22.707684,-30.27018 0,0 z m 22.904294,-16.48435 c -0.338542,-10e-6 -0.638021,0.12716 -0.898438,0.3789 -0.251736,0.25174 -0.378906,0.55425 -0.378906,0.91016 0,0.3559 0.12717,0.66037 0.378906,0.91211 0.260417,0.24305 0.559896,0.36523 0.898438,0.36523 0.338542,0 0.633029,-0.12218 0.884766,-0.36523 0.260416,-0.25174 0.390624,-0.55621 0.390624,-0.91211 10e-7,-0.35591 -0.130208,-0.65842 -0.390624,-0.91016 -0.251737,-0.25174 -0.546224,-0.3789 -0.884766,-0.3789 z m 21.158203,0 c -0.338542,-10e-6 -0.638021,0.12716 -0.898437,0.3789 -0.251737,0.25174 -0.376954,0.55425 -0.376954,0.91016 0,0.3559 0.125217,0.66037 0.376954,0.91211 0.260416,0.24305 0.559895,0.36523 0.898437,0.36523 0.338542,0 0.633029,-0.12218 0.884766,-0.36523 0.260416,-0.25174 0.390625,-0.55621 0.390625,-0.91211 0,-0.35591 -0.130209,-0.65842 -0.390625,-0.91016 -0.251737,-0.25174 -0.546224,-0.3789 -0.884766,-0.3789 z m -9.296875,4.77929 c -0.746528,0 -1.470703,0.22939 -2.173828,0.68945 -0.703126,0.46007 -1.640624,1.37652 -2.8125,2.74805 l -0.02734,-0.0254 0.0918,-0.24805 c 0.373264,-1.05902 0.560547,-1.90039 0.560547,-2.52539 0,-0.37326 -0.182292,-0.56054 -0.546875,-0.56054 -0.694445,0 -1.814235,0.11718 -3.359375,0.35156 -0.182292,0.20833 -0.174262,0.45573 0.02539,0.74219 l 1.06836,0.0781 c 0.321181,0.0347 0.480469,0.21202 0.480469,0.53321 0,0.16493 -0.07813,0.62065 -0.234375,1.36718 l -1.509766,6.64063 c -0.225695,0.9375 -0.337891,1.42426 -0.337891,1.45898 0,0.47743 0.380642,0.7168 1.144532,0.7168 0.199653,0 0.365885,-0.0391 0.496093,-0.11719 0.130209,-0.0694 0.234375,-0.19162 0.3125,-0.36523 0.07813,-0.17361 0.133247,-0.32986 0.167969,-0.46875 0.0434,-0.14757 0.08746,-0.35591 0.130859,-0.625 0.05208,-0.2691 0.09115,-0.4694 0.117188,-0.59961 l 1.015625,-4.42578 c 1.927085,-2.50869 3.299262,-3.76368 4.115234,-3.76368 0.321181,0 0.555556,0.0651 0.703125,0.19532 0.14757,0.12152 0.220704,0.37695 0.220704,0.76757 0.0087,0.2257 -0.103516,0.82965 -0.337891,1.81055 l -1.015625,4.25781 c -0.30382,1.21528 -0.457031,2.03559 -0.457031,2.46094 0,0.5816 0.364582,0.87305 1.09375,0.87305 1.223959,0 2.486978,-0.8253 3.789062,-2.47461 -0.104167,-0.30382 -0.307508,-0.45508 -0.611328,-0.45508 -0.338542,0.37327 -0.677083,0.6888 -1.015625,0.94922 -0.338542,0.26042 -0.577908,0.39062 -0.716797,0.39062 -0.182292,0 -0.273437,-0.15125 -0.273437,-0.45507 0,-0.16493 0.101128,-0.67275 0.300781,-1.52344 l 1.015625,-4.24414 c 0.225694,-1.00695 0.33789,-1.68099 0.33789,-2.01953 0,-1.42361 -0.585936,-2.13477 -1.757812,-2.13477 z m -11.966797,0.0781 c -0.390625,0 -1.492403,0.11718 -3.306641,0.35156 -0.182291,0.20833 -0.174262,0.45573 0.02539,0.74219 l 1.068359,0.0781 c 0.321181,0.0347 0.482422,0.21202 0.482422,0.53321 -0.0087,0.23437 -0.0918,0.6901 -0.248046,1.36718 l -1.25,5.48242 c -0.30382,1.38889 -0.455079,2.20921 -0.455079,2.46094 0,0.5816 0.364583,0.87305 1.09375,0.87305 1.171876,0 2.408854,-0.8253 3.710938,-2.47461 -0.104167,-0.30382 -0.309462,-0.45508 -0.613281,-0.45508 -0.338542,0.37327 -0.677083,0.6888 -1.015625,0.94922 -0.338542,0.26042 -0.575955,0.39062 -0.714844,0.39062 -0.182292,0 -0.273438,-0.15125 -0.273438,-0.45507 0,-0.16493 0.09918,-0.67275 0.298829,-1.52344 l 1.197265,-5.23438 c 0.0434,-0.18229 0.121528,-0.49479 0.234375,-0.9375 0.112847,-0.45138 0.190972,-0.79492 0.234375,-1.02929 0.05208,-0.23438 0.07813,-0.41971 0.07813,-0.5586 0,-0.37326 -0.182291,-0.56054 -0.546875,-0.56054 z m 21.160156,0 c -0.390625,0 -1.494356,0.11718 -3.308593,0.35156 -0.182292,0.20833 -0.17231,0.45573 0.02734,0.74219 l 1.066407,0.0781 c 0.32118,0.0347 0.482422,0.21202 0.482422,0.53321 -0.0087,0.23437 -0.0918,0.6901 -0.248047,1.36718 l -1.25,5.48242 c -0.30382,1.38889 -0.455079,2.20921 -0.455079,2.46094 0,0.5816 0.364583,0.87305 1.09375,0.87305 1.171876,0 2.408854,-0.8253 3.710938,-2.47461 -0.104167,-0.30382 -0.307508,-0.45508 -0.611328,-0.45508 -0.338542,0.37327 -0.677083,0.6888 -1.015625,0.94922 -0.338542,0.26042 -0.577908,0.39062 -0.716797,0.39062 -0.182292,0 -0.273438,-0.15125 -0.273438,-0.45507 1e-6,-0.16493 0.09918,-0.67275 0.298829,-1.52344 l 1.199218,-5.23438 c 0.0434,-0.18229 0.121528,-0.49479 0.234375,-0.9375 0.112848,-0.45138 0.190973,-0.79492 0.234375,-1.02929 0.05208,-0.23438 0.07813,-0.41971 0.07813,-0.5586 0,-0.37326 -0.182291,-0.56054 -0.546875,-0.56054 z m -36.146484,14.07617 c -2.32639,0 -4.534938,0.85937 -6.626953,2.57812 -2.092015,1.71007 -3.412109,3.97071 -3.958984,6.78321 -0.112848,0.58159 -0.169922,1.14952 -0.169922,1.70508 0,1.9618 0.648002,3.57638 1.941406,4.84374 1.302084,1.26737 3.049912,1.90235 5.246094,1.90235 2.682293,0 5.117186,-0.8253 7.304687,-2.47461 -0.225694,-0.2257 -0.311849,-0.47309 -0.259765,-0.74219 l 0.611328,-3.09961 c 0.06944,-0.42534 0.204644,-0.7118 0.404296,-0.85937 0.208334,-0.15625 0.525825,-0.26042 0.951172,-0.3125 0.164931,-0.0347 0.256077,-0.10287 0.273438,-0.20703 l 0.128906,-0.70313 -0.05078,-0.0527 c -1.032987,0.0347 -1.827257,0.0527 -2.382813,0.0527 -0.546875,0 -1.619573,-0.018 -3.216796,-0.0527 l -0.05273,0.0527 -0.142578,0.70313 c -0.02604,0.13889 0.03103,0.20703 0.169922,0.20703 l 0.636719,0.0527 c 0.442708,0.0347 0.760199,0.10786 0.951172,0.2207 0.190972,0.10417 0.287109,0.29145 0.287109,0.56055 0,0.0955 -0.01302,0.20768 -0.03906,0.33789 l -0.794922,4.07617 c -1.041667,0.85938 -2.37782,1.28907 -4.009765,1.28907 -0.937501,0 -1.775824,-0.18729 -2.513672,-0.56055 -0.737848,-0.37326 -1.328776,-0.86806 -1.771484,-1.48437 -0.434028,-0.62501 -0.762587,-1.31012 -0.988282,-2.05665 -0.225694,-0.74652 -0.339843,-1.52777 -0.339843,-2.34375 0,-0.53819 0.04904,-1.06705 0.144531,-1.58789 0.451389,-2.29166 1.409938,-4.17165 2.876953,-5.63867 1.475695,-1.46701 3.095268,-2.20117 4.857422,-2.20117 1.692709,0 2.893663,0.40864 3.605469,1.22461 0.711806,0.81597 1.128472,1.90169 1.25,3.25586 l 0.808593,-0.15625 c 0,-1.08507 0.07813,-2.45226 0.234375,-4.10156 -0.390625,0 -1.090711,-0.20031 -2.097656,-0.59961 -1.006945,-0.40799 -2.095702,-0.61133 -3.267578,-0.61133 z m 27.578125,0 c -1.223959,0 -2.413845,0.39062 -3.568359,1.17187 -1.154515,0.78125 -1.865669,1.83898 -2.134766,3.17578 -0.06076,0.30382 -0.0918,0.60027 -0.0918,0.88672 0,0.56424 0.109158,1.08507 0.326172,1.5625 0.225695,0.47743 0.546224,0.90213 0.962891,1.27539 0.416667,0.36459 0.820312,0.6721 1.210937,0.92383 0.399306,0.25174 0.878038,0.51715 1.433594,0.79492 0.694445,0.34723 1.236328,0.7589 1.626953,1.23633 0.390625,0.47743 0.585937,1.08637 0.585937,1.82422 1e-6,0.29514 -0.03407,0.6237 -0.103515,0.98828 -0.390625,2.01389 -1.619573,3.02149 -3.685547,3.02149 -2.395835,0 -3.60178,-1.26302 -3.619141,-3.78907 l -0.808593,0.0781 c -0.07813,1.8316 -0.195313,3.25586 -0.351563,4.27148 0.46875,0 1.124783,0.0651 1.966797,0.19532 0.842014,0.1302 1.644314,0.19531 2.408203,0.19531 1.475696,0 2.82986,-0.47873 4.0625,-1.43359 1.24132,-0.95487 1.996528,-2.10873 2.265625,-3.4629 0.06076,-0.36458 0.0918,-0.69813 0.0918,-1.00195 0,-0.57292 -0.09918,-1.09375 -0.298828,-1.5625 -0.190972,-0.46875 -0.474392,-0.87739 -0.847656,-1.22461 -0.373265,-0.3559 -0.750868,-0.65039 -1.132813,-0.88476 -0.381945,-0.24306 -0.827691,-0.48243 -1.339844,-0.7168 -1.883681,-0.86806 -2.826172,-1.98286 -2.826172,-3.3457 0,-0.19098 0.01801,-0.37327 0.05273,-0.54688 0.164931,-0.81597 0.558593,-1.472 1.183594,-1.9668 0.633681,-0.50347 1.367838,-0.75586 2.201171,-0.75586 0.590279,0 1.080078,0.0881 1.470704,0.26172 0.390625,0.16493 0.682074,0.42036 0.873046,0.76758 0.199653,0.34722 0.337891,0.69076 0.416016,1.0293 0.08681,0.33854 0.156901,0.76324 0.208984,1.27539 l 0.820313,0.0527 c 0,-0.49479 0.03103,-1.11979 0.0918,-1.875 0.06944,-0.75521 0.111545,-1.27604 0.128906,-1.5625 -0.269097,-0.0347 -0.701822,-0.18793 -1.300781,-0.45703 -0.598959,-0.26909 -1.359158,-0.40234 -2.279297,-0.40234 z m -12.408203,0.11719 c -0.199653,0 -0.717448,0.0391 -1.550781,0.11718 -0.833334,0.0781 -1.43533,0.11719 -1.808594,0.11719 -0.92882,0 -2.014539,-0.018 -3.25586,-0.0527 l -0.07812,0.0527 -0.103516,0.55859 c -0.01736,0.10417 0.02474,0.15625 0.128906,0.15626 l 0.990234,0.0527 c 0.234376,0.0174 0.4477,0.0955 0.638672,0.23437 0.190973,0.13889 0.285157,0.35222 0.285157,0.63868 0,0.0781 -0.008,0.15928 -0.02539,0.24609 l -2.603516,13.42578 c -0.06944,0.37327 -0.230685,0.6467 -0.482422,0.82031 -0.251736,0.16493 -0.634331,0.26411 -1.146484,0.29883 l -0.675781,0.0527 c -0.121528,0 -0.199653,0.0681 -0.234375,0.20703 l -0.105469,0.50781 0.05273,0.0527 c 1.24132,-0.0347 2.335068,-0.0527 3.28125,-0.0527 0.729167,0 1.893011,0.018 3.490234,0.0527 l 0.05078,-0.0527 0.105469,-0.50781 c 0.03472,-0.13889 -0.01736,-0.20703 -0.15625,-0.20703 l -0.9375,-0.0527 c -0.425348,-0.026 -0.734809,-0.0961 -0.925781,-0.20898 -0.190973,-0.12153 -0.285157,-0.31684 -0.285157,-0.58594 0,-0.0868 0.01302,-0.19401 0.03906,-0.32422 l 1.144531,-5.89844 c 0.520834,0.17361 1.155816,0.25977 1.902344,0.25977 1.102431,0 2.095051,-0.16927 2.980469,-0.50781 0.894097,-0.34723 1.607204,-0.79796 2.136718,-1.35352 0.529515,-0.56424 0.949219,-1.14214 1.261719,-1.73242 0.3125,-0.59896 0.530816,-1.21094 0.652344,-1.83594 0.06076,-0.28646 0.08984,-0.57291 0.08984,-0.85937 0,-0.44271 -0.07313,-0.85439 -0.220704,-1.23633 -0.138888,-0.39063 -0.378254,-0.77322 -0.716796,-1.14649 -0.329862,-0.38194 -0.832682,-0.68142 -1.509766,-0.89843 -0.668403,-0.2257 -1.470703,-0.33789 -2.408203,-0.33789 z m -0.378906,0.89843 c 1.970487,0 2.957031,0.89345 2.957031,2.68164 -0.0087,0.40799 -0.06076,0.86871 -0.15625,1.38086 -0.529514,2.69966 -2.075953,4.04883 -4.636719,4.04883 -0.885417,0 -1.479383,-0.044 -1.783203,-0.13086 l 1.302734,-6.75781 c 0.06945,-0.42535 0.259766,-0.73286 0.572266,-0.92383 0.3125,-0.19965 0.893446,-0.29883 1.744141,-0.29883 z m 23.710937,5.06446 -0.792969,4.64843 h -4.648437 l -0.208984,1.30274 h 4.609374 l -0.820312,4.60937 h 1.302734 l 0.832032,-4.60937 h 4.609375 l 0.234375,-1.30274 h -4.609375 l 0.794921,-4.64843 z"
           transform="matrix(-0.15,0,0,0.15,17.159026,-6.9799997)" />
      </g>
      <g
         id="g5612"
         transform="matrix(0.54700139,0.03158219,-0.03158219,0.54700139,-6.9778271,1.9745507)"
         style="fill:#aa0000">
        <path
           style="fill:#aa0000;stroke:#1a1a1a;stroke-width:0;stroke-linecap:round;paint-order:fill markers stroke"
           id="path5507"
           d="m 143.12832,84.098264 -3.33302,-16.808281 -17.0943,-1.188446 16.80828,-3.333028 1.18845,-17.094296 3.33302,16.808281 17.0943,1.188445 -16.80828,3.333028 z"
           transform="matrix(0.26458333,0,0,0.26458333,2.6464308,2.7053273)" />
        <path
           style="fill:#aa0000;stroke:#1a1a1a;stroke-width:0;stroke-linecap:round;paint-order:fill markers stroke"
           id="path5608"
           d="m 143.12832,84.098264 -3.33302,-16.808281 -17.0943,-1.188446 16.80828,-3.333028 1.18845,-17.094296 3.33302,16.808281 17.0943,1.188445 -16.80828,3.333028 z"
           transform="matrix(0.15322992,-0.15322992,0.15322992,0.15322992,8.506417,31.675953)" />
      </g>
    </g>
  </g>
</svg>
